# xmcd
#
# Track frame offsets:
#	150
#	13704
#	27374
#	39537
#	49211
#	64095
#	74001
#	87293
#	103404
#	113877
#	126845
#	140631
#
# Disc length: 2070 seconds
#
# Revision: 0
# Processed by: cddbd v1.5.2PL0 Copyright (c) Steve Scherf et al.
# Submitted via: audiograbber 1.83.01
#
DISCID=b408140c
DTITLE=Ray Charles - Modern Sounds In Country and Western, Vol.2
DYEAR=1900
DGENRE=
TTITLE0=You Are My Sunshine
TTITLE1=No Letter Today
TTITLE2=Someday
TTITLE3=Don't Tell Me Your Troubles
TTITLE4=Midnight
TTITLE5=Oh, Lonesome Me
TTITLE6=Take These Chains FRom My Heart
TTITLE7=Your Cheatin' Heart
TTITLE8=I'll Never Stand In Your Way
TTITLE9=Making Believe
TTITLE10=Teardrops In My Heart
TTITLE11=Hang Your Head In Shame
EXTD=
EXTT0=
EXTT1=
EXTT2=
EXTT3=
EXTT4=
EXTT5=
EXTT6=
EXTT7=
EXTT8=
EXTT9=
EXTT10=
EXTT11=
PLAYORDER=
